<mxfile host="Electron" modified="2024-03-13T20:40:45.424Z" agent="Mozilla/5.0 (Windows NT 10.0; Win64; x64) AppleWebKit/537.36 (KHTML, like Gecko) draw.io/24.0.4 Chrome/120.0.6099.109 Electron/28.1.0 Safari/537.36" etag="8bic906affhPWRlnVqLD" version="24.0.4" type="device">
  <diagram name="PÃ¡gina-1" id="9x4FQKj8UA-YBg24hfOa">
    <mxGraphModel dx="1467" dy="873" grid="1" gridSize="10" guides="1" tooltips="1" connect="1" arrows="1" fold="1" page="1" pageScale="1" pageWidth="3000" pageHeight="5000" math="0" shadow="0">
      <root>
        <mxCell id="0" />
        <mxCell id="1" parent="0" />
        <mxCell id="rt62Ys8CmCnVezJkkdMg-11" value="" style="edgeStyle=orthogonalEdgeStyle;rounded=0;orthogonalLoop=1;jettySize=auto;html=1;endArrow=none;endFill=0;" parent="1" source="V6n1PKNa-1PN3tG8QIir-1" edge="1">
          <mxGeometry relative="1" as="geometry">
            <mxPoint x="210" y="300" as="targetPoint" />
          </mxGeometry>
        </mxCell>
        <mxCell id="V6n1PKNa-1PN3tG8QIir-1" value="Usuario" style="whiteSpace=wrap;html=1;align=center;fillStyle=solid;fillColor=#a20025;fontColor=#ffffff;strokeColor=#FFFFFF;" parent="1" vertex="1">
          <mxGeometry x="260" y="280" width="100" height="40" as="geometry" />
        </mxCell>
        <mxCell id="V6n1PKNa-1PN3tG8QIir-2" value="NombreUsuario" style="ellipse;whiteSpace=wrap;html=1;align=center;fillColor=#a20025;fontColor=#ffffff;strokeColor=#FFFFFF;" parent="1" vertex="1">
          <mxGeometry x="80" y="30" width="100" height="40" as="geometry" />
        </mxCell>
        <mxCell id="V6n1PKNa-1PN3tG8QIir-3" value="Apellido P" style="ellipse;whiteSpace=wrap;html=1;align=center;fillColor=#a20025;fontColor=#ffffff;strokeColor=#FFFFFF;" parent="1" vertex="1">
          <mxGeometry x="80" y="80" width="100" height="40" as="geometry" />
        </mxCell>
        <mxCell id="V6n1PKNa-1PN3tG8QIir-4" value="Apellido M" style="ellipse;whiteSpace=wrap;html=1;align=center;fillColor=#a20025;fontColor=#ffffff;strokeColor=#FFFFFF;" parent="1" vertex="1">
          <mxGeometry x="80" y="130" width="100" height="40" as="geometry" />
        </mxCell>
        <mxCell id="V6n1PKNa-1PN3tG8QIir-5" value="Telefono" style="ellipse;whiteSpace=wrap;html=1;align=center;fillColor=#a20025;fontColor=#ffffff;strokeColor=#FFFFFF;" parent="1" vertex="1">
          <mxGeometry x="80" y="180" width="100" height="40" as="geometry" />
        </mxCell>
        <mxCell id="V6n1PKNa-1PN3tG8QIir-6" value="Email" style="ellipse;whiteSpace=wrap;html=1;align=center;fillColor=#a20025;fontColor=#ffffff;strokeColor=#FFFFFF;" parent="1" vertex="1">
          <mxGeometry x="80" y="230" width="100" height="40" as="geometry" />
        </mxCell>
        <mxCell id="V6n1PKNa-1PN3tG8QIir-7" value="FechaNac" style="ellipse;whiteSpace=wrap;html=1;align=center;dashed=1;fillColor=#a20025;fontColor=#ffffff;strokeColor=#FFFFFF;" parent="1" vertex="1">
          <mxGeometry x="80" y="280" width="100" height="40" as="geometry" />
        </mxCell>
        <mxCell id="V6n1PKNa-1PN3tG8QIir-8" value="FechaReg" style="ellipse;whiteSpace=wrap;html=1;align=center;dashed=1;fillColor=#a20025;fontColor=#ffffff;strokeColor=#FFFFFF;" parent="1" vertex="1">
          <mxGeometry x="80" y="330" width="100" height="40" as="geometry" />
        </mxCell>
        <mxCell id="V6n1PKNa-1PN3tG8QIir-9" value="IMG" style="ellipse;whiteSpace=wrap;html=1;align=center;dashed=1;fillColor=#a20025;fontColor=#ffffff;strokeColor=#FFFFFF;" parent="1" vertex="1">
          <mxGeometry x="80" y="380" width="100" height="40" as="geometry" />
        </mxCell>
        <mxCell id="V6n1PKNa-1PN3tG8QIir-10" value="Pasword" style="ellipse;whiteSpace=wrap;html=1;align=center;fillColor=#a20025;fontColor=#ffffff;strokeColor=#FFFFFF;" parent="1" vertex="1">
          <mxGeometry x="80" y="430" width="100" height="40" as="geometry" />
        </mxCell>
        <mxCell id="V6n1PKNa-1PN3tG8QIir-11" value="" style="endArrow=none;html=1;rounded=0;" parent="1" edge="1">
          <mxGeometry relative="1" as="geometry">
            <mxPoint x="210" y="550" as="sourcePoint" />
            <mxPoint x="210" y="50" as="targetPoint" />
            <Array as="points">
              <mxPoint x="210" y="170" />
            </Array>
          </mxGeometry>
        </mxCell>
        <mxCell id="V6n1PKNa-1PN3tG8QIir-13" value="" style="endArrow=none;html=1;rounded=0;" parent="1" edge="1">
          <mxGeometry relative="1" as="geometry">
            <mxPoint x="180" y="49.5" as="sourcePoint" />
            <mxPoint x="210" y="50" as="targetPoint" />
            <Array as="points">
              <mxPoint x="200" y="49.5" />
            </Array>
          </mxGeometry>
        </mxCell>
        <mxCell id="V6n1PKNa-1PN3tG8QIir-14" value="" style="endArrow=none;html=1;rounded=0;" parent="1" edge="1">
          <mxGeometry relative="1" as="geometry">
            <mxPoint x="180" y="99.5" as="sourcePoint" />
            <mxPoint x="210" y="100" as="targetPoint" />
            <Array as="points">
              <mxPoint x="200" y="99.5" />
            </Array>
          </mxGeometry>
        </mxCell>
        <mxCell id="V6n1PKNa-1PN3tG8QIir-15" value="" style="endArrow=none;html=1;rounded=0;" parent="1" edge="1">
          <mxGeometry relative="1" as="geometry">
            <mxPoint x="180" y="149.5" as="sourcePoint" />
            <mxPoint x="210" y="150" as="targetPoint" />
            <Array as="points">
              <mxPoint x="200" y="149.5" />
            </Array>
          </mxGeometry>
        </mxCell>
        <mxCell id="V6n1PKNa-1PN3tG8QIir-16" value="" style="endArrow=none;html=1;rounded=0;" parent="1" edge="1">
          <mxGeometry relative="1" as="geometry">
            <mxPoint x="180" y="199.5" as="sourcePoint" />
            <mxPoint x="210" y="200" as="targetPoint" />
            <Array as="points">
              <mxPoint x="200" y="199.5" />
            </Array>
          </mxGeometry>
        </mxCell>
        <mxCell id="V6n1PKNa-1PN3tG8QIir-17" value="" style="endArrow=none;html=1;rounded=0;" parent="1" edge="1">
          <mxGeometry relative="1" as="geometry">
            <mxPoint x="180" y="249.5" as="sourcePoint" />
            <mxPoint x="210" y="250" as="targetPoint" />
            <Array as="points">
              <mxPoint x="200" y="249.5" />
            </Array>
          </mxGeometry>
        </mxCell>
        <mxCell id="V6n1PKNa-1PN3tG8QIir-18" value="" style="endArrow=none;html=1;rounded=0;" parent="1" edge="1">
          <mxGeometry relative="1" as="geometry">
            <mxPoint x="180" y="300" as="sourcePoint" />
            <mxPoint x="210" y="300" as="targetPoint" />
            <Array as="points">
              <mxPoint x="200" y="299.5" />
            </Array>
          </mxGeometry>
        </mxCell>
        <mxCell id="V6n1PKNa-1PN3tG8QIir-19" value="" style="endArrow=none;html=1;rounded=0;" parent="1" edge="1">
          <mxGeometry relative="1" as="geometry">
            <mxPoint x="180" y="349.5" as="sourcePoint" />
            <mxPoint x="210" y="350" as="targetPoint" />
            <Array as="points">
              <mxPoint x="200" y="349.5" />
            </Array>
          </mxGeometry>
        </mxCell>
        <mxCell id="V6n1PKNa-1PN3tG8QIir-20" value="" style="endArrow=none;html=1;rounded=0;" parent="1" edge="1">
          <mxGeometry relative="1" as="geometry">
            <mxPoint x="180" y="399.5" as="sourcePoint" />
            <mxPoint x="210" y="400" as="targetPoint" />
            <Array as="points">
              <mxPoint x="200" y="399.5" />
            </Array>
          </mxGeometry>
        </mxCell>
        <mxCell id="V6n1PKNa-1PN3tG8QIir-21" value="" style="endArrow=none;html=1;rounded=0;" parent="1" edge="1">
          <mxGeometry relative="1" as="geometry">
            <mxPoint x="180" y="449.5" as="sourcePoint" />
            <mxPoint x="210" y="450" as="targetPoint" />
            <Array as="points">
              <mxPoint x="200" y="449.5" />
            </Array>
          </mxGeometry>
        </mxCell>
        <mxCell id="V6n1PKNa-1PN3tG8QIir-22" value="ID_usuario" style="ellipse;whiteSpace=wrap;html=1;align=center;fontStyle=4;fillColor=#a20025;fontColor=#ffffff;strokeColor=#FFFFFF;" parent="1" vertex="1">
          <mxGeometry x="80" y="480" width="100" height="40" as="geometry" />
        </mxCell>
        <mxCell id="V6n1PKNa-1PN3tG8QIir-25" value="" style="endArrow=none;html=1;rounded=0;" parent="1" edge="1">
          <mxGeometry relative="1" as="geometry">
            <mxPoint x="180" y="499.5" as="sourcePoint" />
            <mxPoint x="210" y="500" as="targetPoint" />
            <Array as="points">
              <mxPoint x="200" y="499.5" />
            </Array>
          </mxGeometry>
        </mxCell>
        <mxCell id="V6n1PKNa-1PN3tG8QIir-26" value="" style="endArrow=none;html=1;rounded=0;" parent="1" edge="1">
          <mxGeometry relative="1" as="geometry">
            <mxPoint x="180" y="549.5" as="sourcePoint" />
            <mxPoint x="210" y="550" as="targetPoint" />
            <Array as="points">
              <mxPoint x="200" y="549.5" />
            </Array>
          </mxGeometry>
        </mxCell>
        <mxCell id="rt62Ys8CmCnVezJkkdMg-7" value="&lt;span style=&quot;border-bottom: 1px dotted&quot;&gt;ID tipo usuario&lt;/span&gt;" style="ellipse;whiteSpace=wrap;html=1;align=center;fillColor=#a20025;fontColor=#ffffff;strokeColor=#FFFFFF;" parent="1" vertex="1">
          <mxGeometry x="80" y="530" width="100" height="40" as="geometry" />
        </mxCell>
        <mxCell id="rt62Ys8CmCnVezJkkdMg-14" value="" style="edgeStyle=orthogonalEdgeStyle;rounded=0;orthogonalLoop=1;jettySize=auto;html=1;endArrow=none;endFill=0;" parent="1" source="rt62Ys8CmCnVezJkkdMg-8" target="rt62Ys8CmCnVezJkkdMg-13" edge="1">
          <mxGeometry relative="1" as="geometry" />
        </mxCell>
        <mxCell id="NFWd-2ioxgS9ytEczuKc-18" style="edgeStyle=orthogonalEdgeStyle;rounded=0;orthogonalLoop=1;jettySize=auto;html=1;entryX=0.5;entryY=1;entryDx=0;entryDy=0;endArrow=ERmany;endFill=0;" parent="1" source="rt62Ys8CmCnVezJkkdMg-8" target="V6n1PKNa-1PN3tG8QIir-1" edge="1">
          <mxGeometry relative="1" as="geometry" />
        </mxCell>
        <mxCell id="rt62Ys8CmCnVezJkkdMg-8" value="Tiene" style="shape=rhombus;perimeter=rhombusPerimeter;whiteSpace=wrap;html=1;align=center;" parent="1" vertex="1">
          <mxGeometry x="250" y="350" width="120" height="60" as="geometry" />
        </mxCell>
        <mxCell id="rt62Ys8CmCnVezJkkdMg-20" value="" style="edgeStyle=orthogonalEdgeStyle;rounded=0;orthogonalLoop=1;jettySize=auto;html=1;endArrow=none;endFill=0;" parent="1" source="rt62Ys8CmCnVezJkkdMg-13" target="rt62Ys8CmCnVezJkkdMg-19" edge="1">
          <mxGeometry relative="1" as="geometry" />
        </mxCell>
        <mxCell id="rt62Ys8CmCnVezJkkdMg-13" value="TipoUsuario" style="whiteSpace=wrap;html=1;fillColor=#6a00ff;fontColor=#ffffff;strokeColor=#FFFFFF;" parent="1" vertex="1">
          <mxGeometry x="510" y="430" width="100" height="40" as="geometry" />
        </mxCell>
        <mxCell id="rt62Ys8CmCnVezJkkdMg-17" value="NombreTUsuaro" style="ellipse;whiteSpace=wrap;html=1;align=center;fillColor=#6a00ff;fontColor=#ffffff;strokeColor=#FFFFFF;" parent="1" vertex="1">
          <mxGeometry x="660" y="490" width="100" height="40" as="geometry" />
        </mxCell>
        <mxCell id="rt62Ys8CmCnVezJkkdMg-18" value="Descripcion TUsuario" style="ellipse;whiteSpace=wrap;html=1;align=center;fillColor=#6a00ff;fontColor=#ffffff;strokeColor=#FFFFFF;" parent="1" vertex="1">
          <mxGeometry x="660" y="550" width="100" height="40" as="geometry" />
        </mxCell>
        <mxCell id="rt62Ys8CmCnVezJkkdMg-19" value="ID_TUsuario" style="ellipse;whiteSpace=wrap;html=1;align=center;fontStyle=4;fillColor=#6a00ff;fontColor=#ffffff;strokeColor=#FFFFFF;" parent="1" vertex="1">
          <mxGeometry x="660" y="430" width="100" height="40" as="geometry" />
        </mxCell>
        <mxCell id="rt62Ys8CmCnVezJkkdMg-30" value="" style="edgeStyle=orthogonalEdgeStyle;rounded=0;orthogonalLoop=1;jettySize=auto;html=1;endArrow=ERmany;endFill=0;" parent="1" source="rt62Ys8CmCnVezJkkdMg-26" target="rt62Ys8CmCnVezJkkdMg-29" edge="1">
          <mxGeometry relative="1" as="geometry">
            <Array as="points">
              <mxPoint x="500" y="690" />
              <mxPoint x="500" y="690" />
            </Array>
          </mxGeometry>
        </mxCell>
        <mxCell id="1SVma24wGlHESOV6jlv2-1" style="edgeStyle=orthogonalEdgeStyle;rounded=0;orthogonalLoop=1;jettySize=auto;html=1;endArrow=ERmany;endFill=0;" edge="1" parent="1" source="rt62Ys8CmCnVezJkkdMg-26" target="rt62Ys8CmCnVezJkkdMg-13">
          <mxGeometry relative="1" as="geometry" />
        </mxCell>
        <mxCell id="rt62Ys8CmCnVezJkkdMg-26" value="Si tipo usuario == paciente" style="shape=rhombus;double=1;perimeter=rhombusPerimeter;whiteSpace=wrap;html=1;align=center;" parent="1" vertex="1">
          <mxGeometry x="440" y="600" width="120" height="60" as="geometry" />
        </mxCell>
        <mxCell id="rt62Ys8CmCnVezJkkdMg-40" value="" style="edgeStyle=orthogonalEdgeStyle;rounded=0;orthogonalLoop=1;jettySize=auto;html=1;endArrow=none;endFill=0;" parent="1" source="rt62Ys8CmCnVezJkkdMg-29" target="rt62Ys8CmCnVezJkkdMg-39" edge="1">
          <mxGeometry relative="1" as="geometry" />
        </mxCell>
        <mxCell id="rt62Ys8CmCnVezJkkdMg-29" value="Test" style="whiteSpace=wrap;html=1;align=center;fillColor=#fa6800;fontColor=#FFFFFF;strokeColor=#FFFFFF;" parent="1" vertex="1">
          <mxGeometry x="450" y="730" width="100" height="40" as="geometry" />
        </mxCell>
        <mxCell id="rt62Ys8CmCnVezJkkdMg-32" value="ID test" style="ellipse;whiteSpace=wrap;html=1;align=center;fontStyle=4;fillColor=#fa6800;fontColor=#FFFFFF;strokeColor=#FFFFFF;" parent="1" vertex="1">
          <mxGeometry x="600" y="730" width="100" height="40" as="geometry" />
        </mxCell>
        <mxCell id="rt62Ys8CmCnVezJkkdMg-33" value="" style="endArrow=none;html=1;rounded=0;entryX=0;entryY=0.5;entryDx=0;entryDy=0;" parent="1" target="rt62Ys8CmCnVezJkkdMg-32" edge="1">
          <mxGeometry relative="1" as="geometry">
            <mxPoint x="550" y="749.55" as="sourcePoint" />
            <mxPoint x="630" y="749.55" as="targetPoint" />
          </mxGeometry>
        </mxCell>
        <mxCell id="rt62Ys8CmCnVezJkkdMg-34" value="" style="endArrow=none;html=1;rounded=0;" parent="1" edge="1">
          <mxGeometry relative="1" as="geometry">
            <mxPoint x="580" y="900" as="sourcePoint" />
            <mxPoint x="580" y="750" as="targetPoint" />
          </mxGeometry>
        </mxCell>
        <mxCell id="rt62Ys8CmCnVezJkkdMg-35" value="Nombre test" style="ellipse;whiteSpace=wrap;html=1;align=center;fillColor=#fa6800;fontColor=#FFFFFF;strokeColor=#FFFFFF;" parent="1" vertex="1">
          <mxGeometry x="600" y="780" width="100" height="40" as="geometry" />
        </mxCell>
        <mxCell id="rt62Ys8CmCnVezJkkdMg-36" value="Descripcion test" style="ellipse;whiteSpace=wrap;html=1;align=center;fillColor=#fa6800;fontColor=#FFFFFF;strokeColor=#FFFFFF;" parent="1" vertex="1">
          <mxGeometry x="600" y="830" width="100" height="40" as="geometry" />
        </mxCell>
        <mxCell id="rt62Ys8CmCnVezJkkdMg-37" value="" style="endArrow=none;html=1;rounded=0;" parent="1" edge="1">
          <mxGeometry relative="1" as="geometry">
            <mxPoint x="580" y="799.68" as="sourcePoint" />
            <mxPoint x="600" y="800" as="targetPoint" />
          </mxGeometry>
        </mxCell>
        <mxCell id="rt62Ys8CmCnVezJkkdMg-38" value="" style="endArrow=none;html=1;rounded=0;" parent="1" edge="1">
          <mxGeometry relative="1" as="geometry">
            <mxPoint x="580" y="849.68" as="sourcePoint" />
            <mxPoint x="600" y="850" as="targetPoint" />
          </mxGeometry>
        </mxCell>
        <mxCell id="rt62Ys8CmCnVezJkkdMg-42" value="" style="edgeStyle=orthogonalEdgeStyle;rounded=0;orthogonalLoop=1;jettySize=auto;html=1;endArrow=ERmany;endFill=0;" parent="1" source="rt62Ys8CmCnVezJkkdMg-39" target="rt62Ys8CmCnVezJkkdMg-41" edge="1">
          <mxGeometry relative="1" as="geometry" />
        </mxCell>
        <mxCell id="rt62Ys8CmCnVezJkkdMg-39" value="Tiene" style="shape=rhombus;perimeter=rhombusPerimeter;whiteSpace=wrap;html=1;align=center;" parent="1" vertex="1">
          <mxGeometry x="400" y="840" width="120" height="60" as="geometry" />
        </mxCell>
        <mxCell id="rt62Ys8CmCnVezJkkdMg-41" value="Diagnostico" style="whiteSpace=wrap;html=1;align=center;fillColor=#6d8764;fontColor=#ffffff;strokeColor=#FFFFFF;" parent="1" vertex="1">
          <mxGeometry x="410" y="1110" width="100" height="40" as="geometry" />
        </mxCell>
        <mxCell id="rt62Ys8CmCnVezJkkdMg-43" value="Nombre usuario" style="ellipse;whiteSpace=wrap;html=1;align=center;fillColor=#6d8764;fontColor=#ffffff;strokeColor=#FFFFFF;" parent="1" vertex="1">
          <mxGeometry x="270" y="1060" width="100" height="40" as="geometry" />
        </mxCell>
        <mxCell id="rt62Ys8CmCnVezJkkdMg-44" value="ID diagnostico" style="ellipse;whiteSpace=wrap;html=1;align=center;fontStyle=4;fillColor=#6d8764;fontColor=#ffffff;strokeColor=#FFFFFF;" parent="1" vertex="1">
          <mxGeometry x="270" y="1010" width="100" height="40" as="geometry" />
        </mxCell>
        <mxCell id="rt62Ys8CmCnVezJkkdMg-45" value="FechDiagnostico" style="ellipse;whiteSpace=wrap;html=1;align=center;dashed=1;fillColor=#6d8764;fontColor=#ffffff;strokeColor=#FFFFFF;" parent="1" vertex="1">
          <mxGeometry x="270" y="1110" width="100" height="40" as="geometry" />
        </mxCell>
        <mxCell id="rt62Ys8CmCnVezJkkdMg-46" value="Descripcion diag" style="ellipse;whiteSpace=wrap;html=1;align=center;fillColor=#6d8764;fontColor=#ffffff;strokeColor=#FFFFFF;" parent="1" vertex="1">
          <mxGeometry x="270" y="1160" width="100" height="40" as="geometry" />
        </mxCell>
        <mxCell id="rt62Ys8CmCnVezJkkdMg-47" value="Resultado" style="ellipse;whiteSpace=wrap;html=1;align=center;fillColor=#6d8764;fontColor=#ffffff;strokeColor=#FFFFFF;" parent="1" vertex="1">
          <mxGeometry x="270" y="1210" width="100" height="40" as="geometry" />
        </mxCell>
        <mxCell id="rt62Ys8CmCnVezJkkdMg-48" value="" style="endArrow=none;html=1;rounded=0;" parent="1" edge="1">
          <mxGeometry relative="1" as="geometry">
            <mxPoint x="390" y="1280" as="sourcePoint" />
            <mxPoint x="390" y="1030" as="targetPoint" />
          </mxGeometry>
        </mxCell>
        <mxCell id="rt62Ys8CmCnVezJkkdMg-49" value="" style="endArrow=none;html=1;rounded=0;exitX=1;exitY=0.5;exitDx=0;exitDy=0;" parent="1" source="rt62Ys8CmCnVezJkkdMg-45" edge="1">
          <mxGeometry relative="1" as="geometry">
            <mxPoint x="380" y="1129.55" as="sourcePoint" />
            <mxPoint x="410" y="1129.55" as="targetPoint" />
          </mxGeometry>
        </mxCell>
        <mxCell id="rt62Ys8CmCnVezJkkdMg-50" value="" style="endArrow=none;html=1;rounded=0;exitX=1;exitY=0.5;exitDx=0;exitDy=0;" parent="1" edge="1">
          <mxGeometry relative="1" as="geometry">
            <mxPoint x="370" y="1179.55" as="sourcePoint" />
            <mxPoint x="390" y="1179.55" as="targetPoint" />
          </mxGeometry>
        </mxCell>
        <mxCell id="rt62Ys8CmCnVezJkkdMg-51" value="" style="endArrow=none;html=1;rounded=0;exitX=1;exitY=0.5;exitDx=0;exitDy=0;" parent="1" edge="1">
          <mxGeometry relative="1" as="geometry">
            <mxPoint x="370" y="1229.55" as="sourcePoint" />
            <mxPoint x="390" y="1229.55" as="targetPoint" />
          </mxGeometry>
        </mxCell>
        <mxCell id="rt62Ys8CmCnVezJkkdMg-53" value="" style="endArrow=none;html=1;rounded=0;exitX=1;exitY=0.5;exitDx=0;exitDy=0;" parent="1" edge="1">
          <mxGeometry relative="1" as="geometry">
            <mxPoint x="370" y="1079.55" as="sourcePoint" />
            <mxPoint x="390" y="1079.55" as="targetPoint" />
          </mxGeometry>
        </mxCell>
        <mxCell id="rt62Ys8CmCnVezJkkdMg-54" value="" style="endArrow=none;html=1;rounded=0;exitX=1;exitY=0.5;exitDx=0;exitDy=0;" parent="1" edge="1">
          <mxGeometry relative="1" as="geometry">
            <mxPoint x="370" y="1029.55" as="sourcePoint" />
            <mxPoint x="390" y="1029.55" as="targetPoint" />
          </mxGeometry>
        </mxCell>
        <mxCell id="rt62Ys8CmCnVezJkkdMg-58" value="" style="edgeStyle=orthogonalEdgeStyle;rounded=0;orthogonalLoop=1;jettySize=auto;html=1;endArrow=ERmany;endFill=0;" parent="1" source="rt62Ys8CmCnVezJkkdMg-55" target="rt62Ys8CmCnVezJkkdMg-57" edge="1">
          <mxGeometry relative="1" as="geometry" />
        </mxCell>
        <mxCell id="1SVma24wGlHESOV6jlv2-2" value="" style="edgeStyle=orthogonalEdgeStyle;rounded=0;orthogonalLoop=1;jettySize=auto;html=1;endArrow=ERmany;endFill=0;" edge="1" parent="1" source="rt62Ys8CmCnVezJkkdMg-55" target="rt62Ys8CmCnVezJkkdMg-41">
          <mxGeometry relative="1" as="geometry" />
        </mxCell>
        <mxCell id="rt62Ys8CmCnVezJkkdMg-55" value="Tiene" style="shape=rhombus;perimeter=rhombusPerimeter;whiteSpace=wrap;html=1;align=center;" parent="1" vertex="1">
          <mxGeometry x="570" y="1100" width="120" height="60" as="geometry" />
        </mxCell>
        <mxCell id="rt62Ys8CmCnVezJkkdMg-57" value="Tratamiento" style="whiteSpace=wrap;html=1;align=center;fillColor=#a0522d;strokeColor=#6D1F00;fontColor=#ffffff;" parent="1" vertex="1">
          <mxGeometry x="740" y="1110" width="100" height="40" as="geometry" />
        </mxCell>
        <mxCell id="rt62Ys8CmCnVezJkkdMg-59" value="&lt;span style=&quot;border-bottom: 1px dotted&quot;&gt;ID test&lt;/span&gt;" style="ellipse;whiteSpace=wrap;html=1;align=center;fillColor=#6A00FF;fontColor=#ffffff;strokeColor=#FFFFFF;" parent="1" vertex="1">
          <mxGeometry x="660" y="610" width="100" height="40" as="geometry" />
        </mxCell>
        <mxCell id="rt62Ys8CmCnVezJkkdMg-60" value="" style="endArrow=none;html=1;rounded=0;" parent="1" edge="1">
          <mxGeometry relative="1" as="geometry">
            <mxPoint x="710" y="610" as="sourcePoint" />
            <mxPoint x="709.75" y="590" as="targetPoint" />
          </mxGeometry>
        </mxCell>
        <mxCell id="rt62Ys8CmCnVezJkkdMg-61" value="" style="endArrow=none;html=1;rounded=0;" parent="1" edge="1">
          <mxGeometry relative="1" as="geometry">
            <mxPoint x="710.01" y="550" as="sourcePoint" />
            <mxPoint x="709.76" y="530" as="targetPoint" />
          </mxGeometry>
        </mxCell>
        <mxCell id="rt62Ys8CmCnVezJkkdMg-62" value="" style="endArrow=none;html=1;rounded=0;" parent="1" edge="1">
          <mxGeometry relative="1" as="geometry">
            <mxPoint x="710.01" y="490" as="sourcePoint" />
            <mxPoint x="709.76" y="470" as="targetPoint" />
          </mxGeometry>
        </mxCell>
        <mxCell id="rt62Ys8CmCnVezJkkdMg-63" value="ID diagnostico" style="ellipse;whiteSpace=wrap;html=1;align=center;fillColor=#FA6800;fontColor=#ffffff;strokeColor=#FFFFFF;" parent="1" vertex="1">
          <mxGeometry x="600" y="880" width="100" height="40" as="geometry" />
        </mxCell>
        <mxCell id="rt62Ys8CmCnVezJkkdMg-64" value="" style="endArrow=none;html=1;rounded=0;" parent="1" edge="1">
          <mxGeometry relative="1" as="geometry">
            <mxPoint x="580" y="899.55" as="sourcePoint" />
            <mxPoint x="600" y="899.87" as="targetPoint" />
          </mxGeometry>
        </mxCell>
        <mxCell id="rt62Ys8CmCnVezJkkdMg-65" value="ID tratamiento" style="ellipse;whiteSpace=wrap;html=1;align=center;fillColor=#6D8764;fontColor=#ffffff;strokeColor=#FFFFFF;" parent="1" vertex="1">
          <mxGeometry x="270" y="1260" width="100" height="40" as="geometry" />
        </mxCell>
        <mxCell id="rt62Ys8CmCnVezJkkdMg-66" value="" style="endArrow=none;html=1;rounded=0;exitX=1;exitY=0.5;exitDx=0;exitDy=0;" parent="1" edge="1">
          <mxGeometry relative="1" as="geometry">
            <mxPoint x="370" y="1279.55" as="sourcePoint" />
            <mxPoint x="390" y="1279.55" as="targetPoint" />
          </mxGeometry>
        </mxCell>
        <mxCell id="rt62Ys8CmCnVezJkkdMg-67" value="Nombre Tratamiento" style="ellipse;whiteSpace=wrap;html=1;align=center;fillColor=#a0522d;fontColor=#ffffff;strokeColor=#FFFFFF;" parent="1" vertex="1">
          <mxGeometry x="880" y="1160" width="100" height="40" as="geometry" />
        </mxCell>
        <mxCell id="rt62Ys8CmCnVezJkkdMg-68" value="ID tratamiento" style="ellipse;whiteSpace=wrap;html=1;align=center;fontStyle=4;fillColor=#a0522d;fontColor=#ffffff;strokeColor=#FFFFFF;" parent="1" vertex="1">
          <mxGeometry x="880" y="1110" width="100" height="40" as="geometry" />
        </mxCell>
        <mxCell id="rt62Ys8CmCnVezJkkdMg-69" value="FechTratamiento" style="ellipse;whiteSpace=wrap;html=1;align=center;dashed=1;fillColor=#a0522d;fontColor=#ffffff;strokeColor=#FFFFFF;" parent="1" vertex="1">
          <mxGeometry x="880" y="1210" width="100" height="40" as="geometry" />
        </mxCell>
        <mxCell id="rt62Ys8CmCnVezJkkdMg-70" value="Descripcion trat" style="ellipse;whiteSpace=wrap;html=1;align=center;fillColor=#a0522d;fontColor=#ffffff;strokeColor=#FFFFFF;" parent="1" vertex="1">
          <mxGeometry x="880" y="1260" width="100" height="40" as="geometry" />
        </mxCell>
        <mxCell id="rt62Ys8CmCnVezJkkdMg-71" value="ID actividades" style="ellipse;whiteSpace=wrap;html=1;align=center;fillColor=#a0522d;fontColor=#ffffff;strokeColor=#FFFFFF;" parent="1" vertex="1">
          <mxGeometry x="880" y="1310" width="100" height="40" as="geometry" />
        </mxCell>
        <mxCell id="rt62Ys8CmCnVezJkkdMg-73" value="" style="endArrow=none;html=1;rounded=0;" parent="1" edge="1">
          <mxGeometry relative="1" as="geometry">
            <mxPoint x="860" y="1330" as="sourcePoint" />
            <mxPoint x="860" y="1130" as="targetPoint" />
          </mxGeometry>
        </mxCell>
        <mxCell id="rt62Ys8CmCnVezJkkdMg-74" value="" style="endArrow=none;html=1;rounded=0;" parent="1" edge="1">
          <mxGeometry relative="1" as="geometry">
            <mxPoint x="840" y="1130" as="sourcePoint" />
            <mxPoint x="880" y="1130" as="targetPoint" />
          </mxGeometry>
        </mxCell>
        <mxCell id="rt62Ys8CmCnVezJkkdMg-75" value="" style="endArrow=none;html=1;rounded=0;" parent="1" edge="1">
          <mxGeometry relative="1" as="geometry">
            <mxPoint x="860" y="1180" as="sourcePoint" />
            <mxPoint x="880" y="1180" as="targetPoint" />
          </mxGeometry>
        </mxCell>
        <mxCell id="rt62Ys8CmCnVezJkkdMg-76" value="" style="endArrow=none;html=1;rounded=0;" parent="1" edge="1">
          <mxGeometry relative="1" as="geometry">
            <mxPoint x="860" y="1230" as="sourcePoint" />
            <mxPoint x="880" y="1230" as="targetPoint" />
          </mxGeometry>
        </mxCell>
        <mxCell id="rt62Ys8CmCnVezJkkdMg-77" value="" style="endArrow=none;html=1;rounded=0;" parent="1" edge="1">
          <mxGeometry relative="1" as="geometry">
            <mxPoint x="860" y="1279.75" as="sourcePoint" />
            <mxPoint x="880" y="1279.75" as="targetPoint" />
          </mxGeometry>
        </mxCell>
        <mxCell id="rt62Ys8CmCnVezJkkdMg-78" value="" style="endArrow=none;html=1;rounded=0;" parent="1" edge="1">
          <mxGeometry relative="1" as="geometry">
            <mxPoint x="860" y="1329.75" as="sourcePoint" />
            <mxPoint x="880" y="1329.75" as="targetPoint" />
          </mxGeometry>
        </mxCell>
        <mxCell id="rt62Ys8CmCnVezJkkdMg-82" value="" style="edgeStyle=orthogonalEdgeStyle;rounded=0;orthogonalLoop=1;jettySize=auto;html=1;endArrow=ERmany;endFill=0;" parent="1" source="rt62Ys8CmCnVezJkkdMg-79" target="rt62Ys8CmCnVezJkkdMg-81" edge="1">
          <mxGeometry relative="1" as="geometry" />
        </mxCell>
        <mxCell id="1SVma24wGlHESOV6jlv2-3" style="edgeStyle=orthogonalEdgeStyle;rounded=0;orthogonalLoop=1;jettySize=auto;html=1;endArrow=ERmany;endFill=0;" edge="1" parent="1" source="rt62Ys8CmCnVezJkkdMg-79" target="rt62Ys8CmCnVezJkkdMg-57">
          <mxGeometry relative="1" as="geometry" />
        </mxCell>
        <mxCell id="rt62Ys8CmCnVezJkkdMg-79" value="Tiene" style="shape=rhombus;perimeter=rhombusPerimeter;whiteSpace=wrap;html=1;align=center;" parent="1" vertex="1">
          <mxGeometry x="830" y="880" width="120" height="60" as="geometry" />
        </mxCell>
        <mxCell id="NFWd-2ioxgS9ytEczuKc-2" value="" style="edgeStyle=orthogonalEdgeStyle;rounded=0;orthogonalLoop=1;jettySize=auto;html=1;endArrow=none;endFill=0;" parent="1" source="rt62Ys8CmCnVezJkkdMg-81" target="NFWd-2ioxgS9ytEczuKc-1" edge="1">
          <mxGeometry relative="1" as="geometry" />
        </mxCell>
        <mxCell id="rt62Ys8CmCnVezJkkdMg-81" value="Actividades" style="whiteSpace=wrap;html=1;align=center;fillColor=#e3c800;fontColor=#000000;strokeColor=#FFFFFF;" parent="1" vertex="1">
          <mxGeometry x="1020" y="890" width="100" height="40" as="geometry" />
        </mxCell>
        <mxCell id="rt62Ys8CmCnVezJkkdMg-83" value="ID actividades" style="ellipse;whiteSpace=wrap;html=1;align=center;fontStyle=4;fillColor=#e3c800;fontColor=#000000;strokeColor=#B09500;" parent="1" vertex="1">
          <mxGeometry x="1160" y="890" width="100" height="40" as="geometry" />
        </mxCell>
        <mxCell id="rt62Ys8CmCnVezJkkdMg-84" value="Descripcion act" style="ellipse;whiteSpace=wrap;html=1;align=center;fillColor=#e3c800;fontColor=#000000;strokeColor=#B09500;" parent="1" vertex="1">
          <mxGeometry x="1160" y="950" width="100" height="40" as="geometry" />
        </mxCell>
        <mxCell id="rt62Ys8CmCnVezJkkdMg-85" value="Nombre act" style="ellipse;whiteSpace=wrap;html=1;align=center;fillColor=#e3c800;fontColor=#000000;strokeColor=#B09500;" parent="1" vertex="1">
          <mxGeometry x="1160" y="1010" width="100" height="40" as="geometry" />
        </mxCell>
        <mxCell id="rt62Ys8CmCnVezJkkdMg-88" value="" style="line;strokeWidth=1;rotatable=0;dashed=0;labelPosition=right;align=left;verticalAlign=middle;spacingTop=0;spacingLeft=6;points=[];portConstraint=eastwest;" parent="1" vertex="1">
          <mxGeometry x="1120" y="905" width="40" height="10" as="geometry" />
        </mxCell>
        <mxCell id="rt62Ys8CmCnVezJkkdMg-91" value="" style="endArrow=none;html=1;rounded=0;" parent="1" edge="1">
          <mxGeometry relative="1" as="geometry">
            <mxPoint x="1140" y="1030" as="sourcePoint" />
            <mxPoint x="1139.63" y="910" as="targetPoint" />
          </mxGeometry>
        </mxCell>
        <mxCell id="rt62Ys8CmCnVezJkkdMg-95" value="" style="line;strokeWidth=1;rotatable=0;dashed=0;labelPosition=right;align=left;verticalAlign=middle;spacingTop=0;spacingLeft=6;points=[];portConstraint=eastwest;" parent="1" vertex="1">
          <mxGeometry x="1140" y="965" width="20" height="10" as="geometry" />
        </mxCell>
        <mxCell id="rt62Ys8CmCnVezJkkdMg-96" value="" style="line;strokeWidth=1;rotatable=0;dashed=0;labelPosition=right;align=left;verticalAlign=middle;spacingTop=0;spacingLeft=6;points=[];portConstraint=eastwest;" parent="1" vertex="1">
          <mxGeometry x="1140" y="1022.5" width="20" height="15" as="geometry" />
        </mxCell>
        <mxCell id="NFWd-2ioxgS9ytEczuKc-4" value="" style="edgeStyle=orthogonalEdgeStyle;rounded=0;orthogonalLoop=1;jettySize=auto;html=1;endArrow=ERmany;endFill=0;" parent="1" source="NFWd-2ioxgS9ytEczuKc-1" target="NFWd-2ioxgS9ytEczuKc-3" edge="1">
          <mxGeometry relative="1" as="geometry" />
        </mxCell>
        <mxCell id="NFWd-2ioxgS9ytEczuKc-1" value="Tiene" style="shape=rhombus;perimeter=rhombusPerimeter;whiteSpace=wrap;html=1;align=center;" parent="1" vertex="1">
          <mxGeometry x="1010" y="770" width="120" height="60" as="geometry" />
        </mxCell>
        <mxCell id="NFWd-2ioxgS9ytEczuKc-3" value="Progreso" style="whiteSpace=wrap;html=1;align=center;fillColor=#1ba1e2;fontColor=#ffffff;strokeColor=#FFFFFF;" parent="1" vertex="1">
          <mxGeometry x="1020" y="690" width="100" height="40" as="geometry" />
        </mxCell>
        <mxCell id="NFWd-2ioxgS9ytEczuKc-5" value="Descripcion progreso" style="ellipse;whiteSpace=wrap;html=1;align=center;fillColor=#1ba1e2;fontColor=#ffffff;strokeColor=#FFFFFF;" parent="1" vertex="1">
          <mxGeometry x="880" y="640" width="100" height="40" as="geometry" />
        </mxCell>
        <mxCell id="NFWd-2ioxgS9ytEczuKc-6" value="ID progreso" style="ellipse;whiteSpace=wrap;html=1;align=center;fontStyle=4;fillColor=#1ba1e2;fontColor=#ffffff;strokeColor=#FFFFFF;" parent="1" vertex="1">
          <mxGeometry x="880" y="690" width="100" height="40" as="geometry" />
        </mxCell>
        <mxCell id="NFWd-2ioxgS9ytEczuKc-7" value="Progreso" style="ellipse;whiteSpace=wrap;html=1;align=center;fillColor=#1ba1e2;fontColor=#ffffff;strokeColor=#FFFFFF;" parent="1" vertex="1">
          <mxGeometry x="880" y="740" width="100" height="40" as="geometry" />
        </mxCell>
        <mxCell id="NFWd-2ioxgS9ytEczuKc-8" value="" style="endArrow=none;html=1;rounded=0;exitX=1;exitY=0.5;exitDx=0;exitDy=0;" parent="1" source="NFWd-2ioxgS9ytEczuKc-6" edge="1">
          <mxGeometry relative="1" as="geometry">
            <mxPoint x="990" y="709.68" as="sourcePoint" />
            <mxPoint x="1020" y="710" as="targetPoint" />
          </mxGeometry>
        </mxCell>
        <mxCell id="NFWd-2ioxgS9ytEczuKc-9" value="" style="endArrow=none;html=1;rounded=0;" parent="1" edge="1">
          <mxGeometry relative="1" as="geometry">
            <mxPoint x="1000" y="760" as="sourcePoint" />
            <mxPoint x="1000" y="660" as="targetPoint" />
          </mxGeometry>
        </mxCell>
        <mxCell id="NFWd-2ioxgS9ytEczuKc-10" value="" style="endArrow=none;html=1;rounded=0;" parent="1" edge="1">
          <mxGeometry relative="1" as="geometry">
            <mxPoint x="980" y="659.6800000000001" as="sourcePoint" />
            <mxPoint x="1000" y="659.6800000000001" as="targetPoint" />
          </mxGeometry>
        </mxCell>
        <mxCell id="NFWd-2ioxgS9ytEczuKc-11" value="" style="endArrow=none;html=1;rounded=0;" parent="1" edge="1">
          <mxGeometry relative="1" as="geometry">
            <mxPoint x="980" y="759.6800000000001" as="sourcePoint" />
            <mxPoint x="1000" y="759.6800000000001" as="targetPoint" />
          </mxGeometry>
        </mxCell>
        <mxCell id="NFWd-2ioxgS9ytEczuKc-15" value="Si tipo usuario== tutor" style="shape=rhombus;double=1;perimeter=rhombusPerimeter;whiteSpace=wrap;html=1;align=center;" parent="1" vertex="1">
          <mxGeometry x="220" y="650" width="120" height="60" as="geometry" />
        </mxCell>
        <mxCell id="NFWd-2ioxgS9ytEczuKc-16" style="edgeStyle=orthogonalEdgeStyle;rounded=0;orthogonalLoop=1;jettySize=auto;html=1;entryX=0.5;entryY=0;entryDx=0;entryDy=0;endArrow=none;endFill=0;" parent="1" source="rt62Ys8CmCnVezJkkdMg-13" target="NFWd-2ioxgS9ytEczuKc-15" edge="1">
          <mxGeometry relative="1" as="geometry" />
        </mxCell>
      </root>
    </mxGraphModel>
  </diagram>
</mxfile>
